<?xml version="1.0" encoding="UTF-8"?>
<svg id="Capa_1" xmlns="http://www.w3.org/2000/svg" version="1.1" viewBox="0 0 396.32 201.61">
  <!-- Generator: Adobe Illustrator 30.2.1, SVG Export Plug-In . SVG Version: 2.1.1 Build 1)  -->
  <defs>
    <style>
      .st0 {
        fill: #60c6a8;
      }

      .st1 {
        fill: #fff;
      }
    </style>
  </defs>
  <g>
    <path class="st0" d="M314.83,113.27l9.17-38.44c.17-.73.24-1.54.17-2.33-.35-4.03-3.9-7.01-7.92-6.66s-7.01,3.9-6.66,7.92l3.41,39.37c.03.39.31.73.71.82.5.12,1-.19,1.12-.69Z"/>
    <path class="st0" d="M318,117.59c.09.51.58.84,1.08.75l38.88-7.1c.74-.14,1.5-.4,2.2-.78,3.54-1.94,4.84-6.39,2.9-9.93-1.94-3.55-6.39-4.85-9.93-2.9l-34.66,18.99c-.34.19-.54.58-.47.98Z"/>
    <path class="st0" d="M316.14,114.6c.33.39.92.44,1.31.11l30.12-25.58c.57-.49,1.1-1.1,1.52-1.78,2.1-3.45,1-7.96-2.45-10.06-3.45-2.1-7.96-1-10.06,2.45l-20.53,33.77c-.2.33-.18.77.09,1.09Z"/>
  </g>
  <path class="st1" d="M84.5,48.43l-26.47-29.35c-.51-.56-1.13-1.07-1.82-1.46-3.51-2-7.98-.76-9.98,2.75s-.76,7.98,2.75,9.98l34.37,19.51c.34.19.78.16,1.08-.12.38-.34.41-.93.07-1.31Z"/>
  <path class="st1" d="M89.85,48.27c.47.21,1.02,0,1.23-.47l16.19-36.05c.31-.69.52-1.47.61-2.26.41-4.02-2.52-7.61-6.54-8.02-4.02-.41-7.61,2.52-8.02,6.54l-4.01,39.32c-.04.39.17.78.54.94Z"/>
  <path class="st1" d="M86.35,48.11c.51-.05.88-.51.83-1.02l-3.99-39.32c-.08-.75-.28-1.53-.6-2.26-1.65-3.69-5.99-5.34-9.67-3.68-3.69,1.65-5.34,5.99-3.68,9.67l16.18,36.06c.16.35.53.59.94.54Z"/>
  <path class="st1" d="M36.2,36.26c7.74,0,13.44,1.21,17.08,3.62,3.64,2.42,5.47,5.93,5.47,10.55,0,1.15-.13,2.2-.38,3.16-.25.96-.58,1.84-.98,2.62-.4.79-.85,1.49-1.36,2.1-.51.61-1.03,1.15-1.56,1.6-1.26,1.1-2.67,1.95-4.24,2.56v.6c2.48.29,4.71,1.04,6.69,2.24.83.51,1.64,1.14,2.44,1.9.8.76,1.51,1.68,2.14,2.76.63,1.08,1.13,2.34,1.52,3.76.39,1.43.58,3.06.58,4.91,0,2.8-.51,5.33-1.52,7.57-1.01,2.24-2.52,4.14-4.53,5.71-2,1.56-4.5,2.76-7.49,3.58-2.99.83-6.46,1.24-10.41,1.24-3.66,0-6.63-.23-8.93-.68-2.3-.45-4.08-1.11-5.37-1.98-1.28-.87-2.16-1.92-2.62-3.14-.47-1.23-.7-2.62-.7-4.17v-43.81c0-1.47-1.01-2.2-3.04-2.2-1.47,0-2.96.22-4.47.66-1.51.44-2.87,1.04-4.08,1.8-1.22.76-2.21,1.67-2.98,2.72-.77,1.05-1.16,2.2-1.16,3.42,0,.85.11,1.54.34,2.04.23.51.49.89.78,1.14.29.25.59.41.9.48.31.07.53.1.66.1.67,0,1.21-.11,1.64-.34.43-.23.81-.47,1.16-.72.35-.25.67-.49.98-.72.31-.23.66-.34,1.06-.34.32,0,.66.07,1.02.22s.69.38,1,.7c.31.32.57.74.78,1.26.21.52.32,1.16.32,1.9,0,1.07-.21,1.99-.62,2.76-.41.77-.95,1.42-1.6,1.94-.65.52-1.4.91-2.24,1.16-.84.25-1.68.38-2.5.38-1.28,0-2.44-.22-3.46-.66-1.03-.44-1.9-1.05-2.62-1.82-.72-.77-1.27-1.68-1.64-2.72-.37-1.04-.56-2.15-.56-3.32,0-2.22.41-4.17,1.24-5.87.83-1.7,2-3.16,3.5-4.39,1.51-1.23,3.32-2.25,5.43-3.06,2.11-.81,4.45-1.46,7.01-1.94,2.56-.48,5.31-.82,8.23-1.02,2.92-.2,5.96-.3,9.11-.3ZM35.4,89c0,.61.06,1.2.18,1.74.12.55.36,1.02.72,1.42.36.4.85.72,1.48.96.63.24,1.45.36,2.46.36,1.47,0,2.82-.42,4.04-1.26,1.23-.84,2.28-1.92,3.16-3.24s1.56-2.8,2.04-4.45c.48-1.64.72-3.28.72-4.91,0-2.43-.33-4.57-.98-6.43-.65-1.86-1.57-3.42-2.74-4.71-1.18-1.28-2.56-2.28-4.16-2.98s-3.34-1.11-5.21-1.22l.8-2.04c1.17.05,2.3-.11,3.36-.48,1.07-.37,2.01-1.03,2.82-1.96.81-.93,1.46-2.2,1.94-3.78.48-1.59.72-3.58.72-5.99,0-1.63-.2-3.1-.6-4.41s-.93-2.41-1.58-3.3c-.65-.89-1.42-1.58-2.28-2.06-.87-.48-1.76-.72-2.66-.72-.56,0-1.1.07-1.62.2-.52.13-.97.36-1.36.68-.39.32-.69.74-.92,1.26-.23.52-.34,1.17-.34,1.94v45.37Z"/>
  <path class="st1" d="M81.41,77.75c0,.85.13,1.78.38,2.78.25,1,.62,2.01,1.1,3.02.48,1.02,1.07,1.98,1.78,2.9.71.92,1.52,1.74,2.44,2.46.92.72,1.94,1.3,3.06,1.72,1.12.43,2.35.64,3.68.64.93,0,1.8-.11,2.6-.32.8-.21,1.55-.51,2.24-.88.69-.37,1.36-.81,2-1.3.64-.49,1.28-1.02,1.92-1.58l1,.96c-.61.83-1.4,1.74-2.36,2.72-.96.99-2.12,1.92-3.48,2.78-1.36.87-2.95,1.59-4.77,2.16-1.82.57-3.88.86-6.21.86s-4.59-.42-6.79-1.26c-2.2-.84-4.16-2.1-5.87-3.78-1.71-1.68-3.08-3.78-4.1-6.29-1.03-2.51-1.54-5.45-1.54-8.81,0-2.43.31-4.66.92-6.69.61-2.03,1.45-3.86,2.5-5.49,1.05-1.63,2.28-3.06,3.68-4.28,1.4-1.23,2.88-2.25,4.43-3.06,1.55-.81,3.13-1.43,4.75-1.84,1.61-.41,3.17-.62,4.67-.62,1.98,0,3.7.21,5.17.64,1.47.43,2.69,1,3.66,1.72.97.72,1.7,1.56,2.18,2.5.48.95.72,1.94.72,2.98,0,1.26-.36,2.38-1.08,3.38-.72,1-1.68,1.88-2.88,2.62l-15.82,9.33ZM89.46,69.62c.35-.21.63-.42.86-.62.23-.2.41-.44.54-.72.13-.28.23-.63.3-1.04.07-.41.1-.93.1-1.54,0-.67-.07-1.41-.22-2.22-.15-.81-.39-1.58-.74-2.3-.35-.72-.79-1.32-1.32-1.8-.53-.48-1.18-.72-1.92-.72-.96,0-1.78.29-2.46.86-.68.57-1.24,1.32-1.68,2.22-.44.91-.79,1.94-1.04,3.1-.25,1.16-.45,2.33-.58,3.5-.13,1.18-.21,2.3-.24,3.38-.03,1.08-.04,2-.04,2.74l8.45-4.85Z"/>
  <path class="st1" d="M130.79,56.77c-.51-2.67-1.22-5.16-2.12-7.47-.91-2.31-2-4.3-3.26-5.99-1.27-1.68-2.71-3-4.33-3.96-1.62-.96-3.36-1.44-5.23-1.44-1.07,0-2.04.13-2.9.4-.87.27-1.62.58-2.26.94-.64.36-1.17.71-1.58,1.04-.41.33-.71.58-.9.74l-1.04-1.4c.64-.83,1.42-1.6,2.34-2.32.92-.72,1.93-1.33,3.02-1.84,1.09-.51,2.25-.91,3.46-1.2,1.21-.29,2.42-.44,3.62-.44,3.95,0,7.42.86,10.41,2.58,2.99,1.72,5.49,4.16,7.49,7.31,2,3.15,3.51,6.96,4.53,11.41,1.01,4.46,1.52,9.41,1.52,14.86,0,4.41-.45,8.28-1.34,11.61-.89,3.34-2.17,6.13-3.82,8.39-1.66,2.26-3.66,3.95-6.03,5.09-2.36,1.13-5.03,1.7-7.99,1.7-2.06,0-4.14-.37-6.27-1.1-2.12-.73-4.04-1.93-5.77-3.58-1.72-1.65-3.13-3.82-4.23-6.51-1.09-2.68-1.64-5.97-1.64-9.87,0-3.36.47-6.35,1.42-8.97.95-2.62,2.22-4.83,3.82-6.63,1.6-1.8,3.46-3.18,5.57-4.12,2.11-.95,4.34-1.42,6.69-1.42.91,0,1.72.07,2.44.22.72.15,1.35.33,1.88.54.53.21,1,.45,1.4.7.4.25.76.5,1.08.74ZM131.27,74.39v-1.78c0-.89-.03-1.92-.08-3.08-.05-1.16-.15-2.4-.28-3.7-.13-1.31-.35-2.52-.64-3.64-.64-.83-1.36-1.57-2.14-2.22-.79-.65-1.8-.98-3.02-.98-2.08,0-3.61,1.36-4.59,4.08-.98,2.72-1.46,6.94-1.46,12.65,0,2.51.11,4.81.34,6.89.23,2.08.57,3.87,1.04,5.37.47,1.5,1.07,2.66,1.8,3.48.73.83,1.61,1.24,2.62,1.24,4.27,0,6.41-6.1,6.41-18.3Z"/>
  <path class="st1" d="M164.19,58.01v29.59c0,1.42.27,2.4.8,2.94.53.55,1.27.82,2.2.82.72,0,1.36-.2,1.92-.6.56-.4,1.04-.85,1.44-1.36.48-.56.89-1.21,1.24-1.96l1.24.56c-.4.85-.87,1.79-1.42,2.8-.55,1.02-1.28,1.96-2.18,2.82-.91.87-2.05,1.6-3.42,2.18-1.38.59-3.1.88-5.19.88-1.18,0-2.3-.17-3.38-.52-1.08-.35-2.04-.89-2.88-1.64-.84-.75-1.52-1.68-2.02-2.8-.51-1.12-.76-2.47-.76-4.04v-29.68h-4.49v-2.88c.75,0,1.79-.19,3.12-.58,1.33-.39,2.7-1.03,4.1-1.94,1.4-.91,2.7-2.12,3.9-3.64,1.2-1.52,2.06-3.4,2.56-5.65h3.2v11.81h6.53c2.14,0,3.2-.36,3.2-1.08,0-.27-.13-.45-.4-.54-.27-.09-.57-.21-.9-.36-.33-.15-.63-.35-.9-.62-.27-.27-.4-.71-.4-1.32,0-.75.23-1.33.7-1.76.47-.43,1.07-.64,1.82-.64.48,0,.9.1,1.26.3.36.2.66.47.9.8.24.33.42.71.54,1.14.12.43.18.85.18,1.28,0,1.74-.5,3.12-1.5,4.14-1,1.03-2.61,1.54-4.83,1.54h-6.21Z"/>
  <path class="st1" d="M192.42,92.53c0,.35-.06.77-.18,1.26-.12.49-.4.96-.84,1.4-.44.44-1.07.81-1.9,1.12-.83.31-1.95.46-3.36.46s-2.52-.17-3.32-.5-1.4-.73-1.8-1.18c-.4-.45-.65-.92-.74-1.4-.09-.48-.14-.87-.14-1.16v-30.92c0-.77-.18-1.45-.54-2.02-.36-.57-.97-.86-1.82-.86-.45,0-.84.08-1.16.24-.32.16-.67.39-1.04.68l-.84-1c.61-.51,1.3-1.01,2.06-1.5.76-.49,1.58-.93,2.46-1.3.88-.37,1.83-.68,2.84-.92,1.01-.24,2.08-.36,3.2-.36,1.73,0,3.08.23,4.04.7.96.47,1.67,1.04,2.12,1.72.45.68.73,1.41.82,2.18.09.77.14,1.46.14,2.04v31.32ZM178.89,45.43c0-.75.17-1.46.5-2.14.33-.68.8-1.27,1.4-1.78.6-.51,1.29-.91,2.08-1.2.79-.29,1.65-.44,2.58-.44s1.76.15,2.54.44c.79.29,1.47.69,2.06,1.2.59.51,1.05,1.1,1.38,1.78.33.68.5,1.4.5,2.14s-.17,1.5-.5,2.16c-.33.67-.79,1.25-1.38,1.74-.59.49-1.28.89-2.06,1.18-.79.29-1.64.44-2.54.44s-1.8-.15-2.58-.44c-.79-.29-1.48-.69-2.08-1.18-.6-.49-1.07-1.07-1.4-1.74-.33-.67-.5-1.39-.5-2.16Z"/>
  <path class="st1" d="M236.71,92.61c0,.35-.05.76-.16,1.24-.11.48-.37.93-.78,1.36-.41.43-1.03.79-1.86,1.1-.83.31-1.95.46-3.36.46s-2.53-.17-3.34-.5c-.81-.33-1.43-.73-1.84-1.18-.41-.45-.67-.92-.78-1.4-.11-.48-.16-.87-.16-1.16v-28.31c0-.37-.05-.75-.16-1.14-.11-.39-.27-.74-.48-1.06-.21-.32-.48-.58-.8-.78-.32-.2-.69-.3-1.12-.3-.72,0-1.43.21-2.12.62-.69.41-1.34.89-1.94,1.42-.6.53-1.12,1.07-1.56,1.6-.44.53-.75.93-.94,1.2v26.83c0,.35-.05.76-.16,1.24-.11.48-.37.93-.78,1.36-.41.43-1.03.79-1.84,1.1-.81.31-1.93.46-3.34.46s-2.53-.17-3.34-.5c-.81-.33-1.44-.73-1.86-1.18-.43-.45-.69-.92-.8-1.4-.11-.48-.16-.87-.16-1.16v-30.92c0-.77-.18-1.45-.54-2.02-.36-.57-.97-.86-1.82-.86-.45,0-.84.08-1.16.24-.32.16-.67.39-1.04.68l-.84-1c.61-.51,1.3-1.01,2.06-1.5.76-.49,1.58-.93,2.46-1.3.88-.37,1.83-.68,2.84-.92,1.01-.24,2.08-.36,3.2-.36,1.73,0,3.08.29,4.04.86.96.57,1.67,1.26,2.12,2.06.45.8.73,1.64.82,2.5.09.87.14,1.6.14,2.18,1.25-1.41,2.6-2.68,4.04-3.8.59-.48,1.23-.95,1.94-1.4.71-.45,1.43-.86,2.18-1.22.75-.36,1.52-.65,2.32-.86s1.6-.32,2.4-.32c1.55,0,2.87.28,3.96.84,1.09.56,1.98,1.24,2.64,2.02.67.79,1.15,1.62,1.46,2.48.31.87.46,1.62.46,2.26,1.28-1.41,2.63-2.68,4.04-3.8.59-.48,1.23-.95,1.92-1.4.69-.45,1.42-.86,2.18-1.22.76-.36,1.54-.65,2.32-.86.79-.21,1.58-.32,2.38-.32,1.55,0,2.87.29,3.96.86,1.09.57,1.98,1.33,2.64,2.26.67.94,1.15,1.99,1.46,3.16.31,1.18.46,2.35.46,3.52v24.79c0,.24.01.5.04.78.03.28.09.55.2.8.11.25.27.46.5.62.23.16.53.24.9.24.51,0,.96-.18,1.36-.54s.77-.73,1.12-1.1l.96.84c-.37.56-.87,1.18-1.48,1.86-.61.68-1.34,1.33-2.18,1.94-.84.61-1.82,1.13-2.92,1.54-1.11.41-2.36.62-3.74.62-1.18,0-2.2-.15-3.06-.46-.87-.31-1.6-.72-2.2-1.24-.6-.52-1.05-1.13-1.34-1.84-.29-.71-.44-1.46-.44-2.26v-26.75c0-.37-.05-.75-.16-1.14-.11-.39-.26-.74-.46-1.06-.2-.32-.46-.58-.78-.78s-.69-.3-1.12-.3c-.72,0-1.44.21-2.14.62-.71.41-1.36.89-1.96,1.42-.6.53-1.12,1.07-1.54,1.6-.43.53-.73.93-.92,1.2v26.83Z"/>
  <path class="st1" d="M278.97,77.75c0,.85.13,1.78.38,2.78.25,1,.62,2.01,1.1,3.02.48,1.02,1.07,1.98,1.78,2.9.71.92,1.52,1.74,2.44,2.46.92.72,1.94,1.3,3.06,1.72s2.35.64,3.68.64c.93,0,1.8-.11,2.6-.32.8-.21,1.55-.51,2.24-.88.69-.37,1.36-.81,2-1.3.64-.49,1.28-1.02,1.92-1.58l1,.96c-.61.83-1.4,1.74-2.36,2.72-.96.99-2.12,1.92-3.48,2.78-1.36.87-2.95,1.59-4.77,2.16-1.82.57-3.89.86-6.21.86s-4.59-.42-6.79-1.26c-2.2-.84-4.16-2.1-5.87-3.78-1.71-1.68-3.08-3.78-4.11-6.29-1.03-2.51-1.54-5.45-1.54-8.81,0-2.43.31-4.66.92-6.69.61-2.03,1.45-3.86,2.5-5.49,1.05-1.63,2.28-3.06,3.68-4.28,1.4-1.23,2.88-2.25,4.43-3.06,1.55-.81,3.13-1.43,4.75-1.84,1.61-.41,3.17-.62,4.67-.62,1.98,0,3.7.21,5.17.64,1.47.43,2.69,1,3.66,1.72.97.72,1.7,1.56,2.18,2.5.48.95.72,1.94.72,2.98,0,1.26-.36,2.38-1.08,3.38-.72,1-1.68,1.88-2.88,2.62l-15.82,9.33ZM287.01,69.62c.35-.21.63-.42.86-.62.23-.2.41-.44.54-.72s.23-.63.3-1.04c.07-.41.1-.93.1-1.54,0-.67-.07-1.41-.22-2.22-.15-.81-.39-1.58-.74-2.3-.35-.72-.79-1.32-1.32-1.8-.53-.48-1.18-.72-1.92-.72-.96,0-1.78.29-2.46.86-.68.57-1.24,1.32-1.68,2.22-.44.91-.79,1.94-1.04,3.1-.25,1.16-.45,2.33-.58,3.5-.13,1.18-.21,2.3-.24,3.38-.03,1.08-.04,2-.04,2.74l8.45-4.85Z"/>
  <path class="st0" d="M115.24,107.59c2.85,0,5.58.41,8.2,1.24,2.62.83,4.91,2.06,6.89,3.7,1.98,1.64,3.55,3.69,4.72,6.16,1.17,2.47,1.75,5.34,1.75,8.61,0,2.64-.41,4.9-1.24,6.79-.83,1.89-1.9,3.51-3.22,4.85-1.32,1.34-2.76,2.45-4.34,3.32-1.57.87-3.08,1.58-4.53,2.14v.38c2.3.47,4.72,1.29,7.27,2.46,2.55,1.17,4.89,2.81,7.02,4.91,2.13,2.11,3.89,4.72,5.29,7.85,1.4,3.13,2.11,6.86,2.11,11.2,0,1.83-.23,3.82-.7,5.96-.47,2.15-1.2,4.29-2.2,6.44-1,2.15-2.29,4.21-3.86,6.19-1.57,1.98-3.47,3.73-5.68,5.26-2.21,1.53-4.78,2.75-7.72,3.67-2.93.91-6.23,1.37-9.89,1.37-2.89,0-5.54-.3-7.94-.89-2.4-.6-4.58-1.38-6.54-2.36-1.96-.98-3.7-2.1-5.23-3.35-1.53-1.25-2.88-2.52-4.05-3.8-1.17-1.28-2.19-2.53-3.06-3.76-.87-1.23-1.63-2.32-2.26-3.25l1.91-1.66c2.17,3.02,4.67,5.32,7.49,6.89,2.83,1.57,6.22,2.36,10.17,2.36,1.74,0,3.66-.35,5.74-1.05,2.08-.7,4.02-1.86,5.8-3.48,1.79-1.62,3.28-3.75,4.5-6.41,1.21-2.66,1.82-5.94,1.82-9.86,0-2.89-.46-5.6-1.37-8.13-.91-2.53-2.3-4.74-4.15-6.63-1.85-1.89-4.18-3.41-6.98-4.56-2.81-1.15-6.12-1.79-9.95-1.91v-2.61c1.79,0,3.55-.32,5.29-.96,1.74-.64,3.32-1.59,4.72-2.87,1.4-1.28,2.54-2.84,3.41-4.69.87-1.85,1.31-3.99,1.31-6.41,0-1.7-.2-3.4-.61-5.1-.4-1.7-1.07-3.23-2.01-4.59-.94-1.36-2.14-2.48-3.6-3.35-1.47-.87-3.26-1.31-5.39-1.31-1.23,0-2.36.16-3.38.48s-1.96.76-2.81,1.31c-.85.55-1.65,1.22-2.39,2.01-.74.79-1.46,1.65-2.14,2.58l-1.91-1.53c1.32-2,2.78-3.83,4.4-5.49,1.62-1.66,3.39-3.09,5.33-4.31,1.93-1.21,4.06-2.15,6.38-2.81,2.32-.66,4.86-.99,7.62-.99Z"/>
  <path class="st0" d="M176.68,173.96c1.07,0,2.12-.19,3.16-.58,1.04-.39,1.97-1.03,2.78-1.92.81-.89,1.47-2.06,1.98-3.5.51-1.44.76-3.2.76-5.29,0-2.24-.55-4.42-1.66-6.53-1.11-2.11-2.5-4.19-4.17-6.23-1.67-2.04-3.47-4.07-5.41-6.09-1.94-2.02-3.74-4.07-5.41-6.17-1.67-2.1-3.06-4.26-4.16-6.49-1.11-2.23-1.66-4.56-1.66-6.99s.45-4.63,1.34-6.59c.89-1.96,2.11-3.63,3.64-5.01,1.53-1.37,3.32-2.44,5.37-3.18,2.04-.75,4.23-1.12,6.55-1.12,2.48,0,4.69.26,6.63.78,1.94.52,3.58,1.23,4.93,2.12,1.35.89,2.37,1.95,3.06,3.16.69,1.22,1.04,2.5,1.04,3.86,0,.64-.09,1.3-.28,1.98-.19.68-.48,1.3-.88,1.86-.4.56-.91,1.03-1.52,1.4-.61.37-1.34.56-2.16.56-.99,0-1.72-.3-2.18-.9-.47-.6-.81-1.34-1.04-2.22-.23-.88-.42-1.85-.58-2.9-.16-1.05-.41-2.02-.76-2.9-.35-.88-.87-1.62-1.56-2.22-.69-.6-1.71-.9-3.04-.9-.72,0-1.44.16-2.14.48-.71.32-1.35.81-1.92,1.46-.57.65-1.03,1.49-1.38,2.5-.35,1.01-.52,2.22-.52,3.6,0,1.6.33,3.16,1,4.69.67,1.52,1.55,3.02,2.64,4.51,1.09,1.48,2.34,2.96,3.74,4.45,1.4,1.48,2.83,2.98,4.28,4.49,1.45,1.51,2.88,3.06,4.28,4.65,1.4,1.59,2.65,3.24,3.74,4.95,1.09,1.71,1.98,3.5,2.64,5.37.67,1.87,1,3.83,1,5.89,0,3.02-.58,5.71-1.74,8.07s-2.74,4.35-4.73,5.97c-1.99,1.61-4.32,2.85-6.99,3.7-2.67.85-5.51,1.28-8.53,1.28-2.72,0-5.13-.34-7.23-1.02-2.1-.68-3.86-1.58-5.31-2.7-1.44-1.12-2.53-2.4-3.26-3.82-.73-1.43-1.1-2.9-1.1-4.43,0-.64.1-1.33.3-2.06.2-.73.49-1.41.88-2.02.39-.61.87-1.13,1.46-1.54.59-.41,1.27-.62,2.04-.62s1.45.2,1.94.6c.49.4.89.93,1.18,1.6.29.67.53,1.43.72,2.28.19.85.39,1.72.6,2.6.21.88.48,1.75.8,2.6.32.85.76,1.61,1.32,2.28.56.67,1.28,1.2,2.16,1.6.88.4,1.99.6,3.32.6Z"/>
  <path class="st0" d="M219.37,130.02v29.59c0,1.42.27,2.4.8,2.94.53.55,1.27.82,2.2.82.72,0,1.36-.2,1.92-.6.56-.4,1.04-.85,1.44-1.36.48-.56.89-1.21,1.24-1.96l1.24.56c-.4.85-.87,1.79-1.42,2.8-.55,1.02-1.28,1.96-2.18,2.82-.91.87-2.05,1.6-3.42,2.18-1.38.59-3.1.88-5.19.88-1.18,0-2.3-.17-3.38-.52-1.08-.35-2.04-.89-2.88-1.64-.84-.75-1.52-1.68-2.02-2.8-.51-1.12-.76-2.47-.76-4.04v-29.68h-4.49v-2.88c.75,0,1.79-.19,3.12-.58,1.33-.39,2.7-1.03,4.1-1.94,1.4-.91,2.7-2.12,3.9-3.64,1.2-1.52,2.06-3.4,2.56-5.65h3.2v11.81h6.53c2.14,0,3.2-.36,3.2-1.08,0-.27-.13-.45-.4-.54-.27-.09-.57-.21-.9-.36-.33-.15-.63-.35-.9-.62-.27-.27-.4-.71-.4-1.32,0-.75.23-1.33.7-1.76.47-.43,1.07-.64,1.82-.64.48,0,.9.1,1.26.3.36.2.66.47.9.8.24.33.42.71.54,1.14.12.43.18.85.18,1.28,0,1.74-.5,3.12-1.5,4.14-1,1.03-2.61,1.54-4.83,1.54h-6.21Z"/>
  <path class="st0" d="M230.66,147.65c0-3.5.51-6.56,1.52-9.19,1.01-2.63,2.37-4.83,4.06-6.59,1.7-1.76,3.66-3.08,5.91-3.96,2.24-.88,4.59-1.32,7.05-1.32s4.81.41,7.05,1.22c2.24.81,4.21,2.06,5.91,3.74,1.69,1.68,3.05,3.81,4.06,6.39,1.01,2.58,1.52,5.63,1.52,9.15s-.51,6.59-1.52,9.29c-1.01,2.7-2.37,4.97-4.06,6.81-1.7,1.84-3.66,3.24-5.91,4.18-2.24.95-4.59,1.42-7.05,1.42s-4.81-.45-7.05-1.34c-2.24-.89-4.21-2.22-5.91-3.98-1.7-1.76-3.05-3.96-4.06-6.61-1.01-2.64-1.52-5.71-1.52-9.21ZM255.29,147.25c0-2.14-.07-4.2-.22-6.19-.15-1.99-.43-3.76-.86-5.31-.43-1.55-1.04-2.78-1.84-3.7-.8-.92-1.86-1.38-3.16-1.38s-2.36.49-3.16,1.46c-.8.98-1.42,2.26-1.84,3.84-.43,1.59-.71,3.4-.84,5.43-.13,2.03-.2,4.11-.2,6.25s.07,4.23.2,6.27c.13,2.04.41,3.86.84,5.47.43,1.6,1.04,2.89,1.84,3.86.8.98,1.86,1.46,3.16,1.46s2.36-.51,3.16-1.52c.8-1.01,1.41-2.35,1.84-4,.43-1.66.71-3.52.86-5.61.15-2.08.22-4.19.22-6.33Z"/>
  <path class="st0" d="M288.01,135.03c1.01-1.55,2.1-2.95,3.24-4.21.48-.53,1-1.05,1.56-1.56.56-.51,1.14-.96,1.74-1.36.6-.4,1.22-.72,1.86-.96.64-.24,1.28-.36,1.92-.36,1.36,0,2.43.41,3.2,1.22.77.81,1.16,1.96,1.16,3.42,0,.91-.07,1.78-.22,2.62s-.43,1.86-.86,3.06h-1.12c-.16-.83-.53-1.52-1.12-2.06-.59-.55-1.44-.82-2.56-.82-.83,0-1.64.15-2.44.46-.8.31-1.58.69-2.34,1.14-.76.45-1.48.95-2.16,1.48-.68.53-1.3,1.04-1.86,1.52v25.99c0,.35-.05.76-.16,1.24-.11.48-.37.93-.78,1.36-.41.43-1.03.79-1.84,1.1-.81.31-1.93.46-3.34.46s-2.53-.17-3.34-.5c-.81-.33-1.44-.73-1.86-1.18-.43-.45-.69-.92-.8-1.4-.11-.48-.16-.87-.16-1.16v-30.92c0-.77-.18-1.45-.54-2.02-.36-.57-.97-.86-1.82-.86-.45,0-.84.08-1.16.24-.32.16-.67.39-1.04.68l-.84-1c.61-.51,1.3-1.01,2.06-1.5.76-.49,1.58-.93,2.46-1.3.88-.37,1.83-.68,2.84-.92,1.01-.24,2.08-.36,3.2-.36s2.13.15,2.94.46c.81.31,1.48.71,2,1.2.52.49.93,1.05,1.22,1.66.29.61.51,1.24.66,1.86.15.63.23,1.23.26,1.8.03.57.04,1.06.04,1.46Z"/>
  <path class="st0" d="M320.57,164.55c0,.35-.06.77-.18,1.26-.12.49-.4.96-.84,1.4-.44.44-1.07.81-1.9,1.12-.83.31-1.95.46-3.36.46s-2.52-.17-3.32-.5c-.8-.33-1.4-.73-1.8-1.18-.4-.45-.65-.92-.74-1.4-.09-.48-.14-.87-.14-1.16v-30.92c0-.77-.18-1.45-.54-2.02-.36-.57-.97-.86-1.82-.86-.45,0-.84.08-1.16.24-.32.16-.67.39-1.04.68l-.84-1c.61-.51,1.3-1.01,2.06-1.5.76-.49,1.58-.93,2.46-1.3.88-.37,1.83-.68,2.84-.92,1.01-.24,2.08-.36,3.2-.36,1.73,0,3.08.23,4.04.7.96.47,1.67,1.04,2.12,1.72.45.68.73,1.41.82,2.18.09.77.14,1.46.14,2.04v31.32ZM307.03,117.45c0-.75.17-1.46.5-2.14.33-.68.8-1.27,1.4-1.78.6-.51,1.29-.91,2.08-1.2.79-.29,1.65-.44,2.58-.44s1.76.15,2.54.44c.79.29,1.48.69,2.06,1.2.59.51,1.05,1.1,1.38,1.78.33.68.5,1.4.5,2.14s-.17,1.5-.5,2.16c-.33.67-.79,1.25-1.38,1.74-.59.49-1.28.89-2.06,1.18-.79.29-1.64.44-2.54.44s-1.8-.15-2.58-.44c-.79-.29-1.48-.69-2.08-1.18-.6-.49-1.07-1.07-1.4-1.74-.33-.67-.5-1.39-.5-2.16Z"/>
  <path class="st0" d="M340.99,149.77c0,.85.13,1.78.38,2.78.25,1,.62,2.01,1.1,3.02.48,1.02,1.07,1.98,1.78,2.9.71.92,1.52,1.74,2.44,2.46.92.72,1.94,1.3,3.06,1.72s2.35.64,3.68.64c.93,0,1.8-.11,2.6-.32.8-.21,1.55-.51,2.24-.88.69-.37,1.36-.81,2-1.3.64-.49,1.28-1.02,1.92-1.58l1,.96c-.61.83-1.4,1.74-2.36,2.72-.96.99-2.12,1.92-3.48,2.78-1.36.87-2.95,1.59-4.77,2.16-1.82.57-3.88.86-6.21.86s-4.59-.42-6.79-1.26c-2.2-.84-4.16-2.1-5.87-3.78-1.71-1.68-3.08-3.78-4.1-6.29-1.03-2.51-1.54-5.45-1.54-8.81,0-2.43.31-4.66.92-6.69.61-2.03,1.45-3.86,2.5-5.49,1.05-1.63,2.28-3.06,3.68-4.28,1.4-1.23,2.88-2.25,4.43-3.06,1.55-.81,3.13-1.43,4.75-1.84,1.62-.41,3.17-.62,4.67-.62,1.98,0,3.7.21,5.17.64,1.47.43,2.69,1,3.66,1.72.97.72,1.7,1.56,2.18,2.5.48.95.72,1.94.72,2.98,0,1.26-.36,2.38-1.08,3.38-.72,1-1.68,1.88-2.88,2.62l-15.82,9.33ZM349.04,141.64c.35-.21.63-.42.86-.62.23-.2.41-.44.54-.72.13-.28.23-.63.3-1.04.07-.41.1-.93.1-1.54,0-.67-.07-1.41-.22-2.22-.15-.81-.39-1.58-.74-2.3-.35-.72-.79-1.32-1.32-1.8-.53-.48-1.18-.72-1.92-.72-.96,0-1.78.29-2.46.86-.68.57-1.24,1.32-1.68,2.22-.44.91-.79,1.94-1.04,3.1-.25,1.16-.45,2.33-.58,3.5-.13,1.18-.21,2.3-.24,3.38-.03,1.08-.04,2-.04,2.74l8.45-4.85Z"/>
  <path class="st0" d="M381.48,129.78c-.61,0-1.2.08-1.74.24-.55.16-1.03.42-1.46.78-.43.36-.76.81-1,1.36-.24.55-.36,1.2-.36,1.94,0,1.04.38,2.08,1.14,3.1.76,1.03,1.71,2.1,2.84,3.2,1.13,1.11,2.36,2.26,3.68,3.44,1.32,1.19,2.55,2.44,3.68,3.76,1.13,1.32,2.08,2.73,2.84,4.23.76,1.5,1.14,3.1,1.14,4.81,0,1.92-.33,3.63-.98,5.13-.65,1.5-1.59,2.76-2.8,3.8-1.22,1.04-2.68,1.84-4.41,2.38-1.72.55-3.64.82-5.75.82-1.84,0-3.51-.26-5.01-.78-1.5-.52-2.82-1.16-3.98-1.92-1.16-.76-2.16-1.57-2.98-2.42-.83-.85-1.47-1.63-1.92-2.32l1.4-1c.35.4.79.83,1.32,1.3.53.47,1.13.9,1.78,1.3.65.4,1.35.73,2.1.98.75.25,1.51.38,2.28.38,1.92,0,3.5-.46,4.73-1.38,1.23-.92,1.84-2.29,1.84-4.1,0-1.01-.33-2.06-1-3.14-.67-1.08-1.51-2.2-2.52-3.34-1.02-1.15-2.11-2.34-3.28-3.56-1.18-1.23-2.27-2.5-3.28-3.8s-1.86-2.66-2.52-4.04c-.67-1.39-1-2.83-1-4.33,0-1.68.34-3.15,1.02-4.41.68-1.25,1.59-2.3,2.72-3.12,1.13-.83,2.43-1.45,3.88-1.86,1.45-.41,2.96-.62,4.51-.62,1.79,0,3.42.16,4.89.48,1.47.32,2.73.81,3.78,1.46,1.05.65,1.87,1.48,2.44,2.46.57.99.86,2.14.86,3.44,0,1.01-.33,1.9-1,2.64-.67.75-1.6,1.12-2.8,1.12s-2.02-.25-2.62-.74c-.6-.49-.9-1.17-.9-2.02,0-.56.14-1,.42-1.32.28-.32.59-.58.94-.78.35-.2.66-.37.94-.52.28-.15.42-.34.42-.58,0-.75-.4-1.34-1.2-1.78-.8-.44-1.83-.66-3.08-.66Z"/>
  <path class="st0" d="M35.98,145.82c0,.29-.05.65-.15,1.07-.1.42-.34.81-.71,1.18-.37.37-.91.69-1.61.95-.7.26-1.65.39-2.84.39s-2.13-.14-2.81-.42c-.68-.28-1.18-.61-1.52-1-.34-.38-.55-.78-.63-1.18-.08-.41-.12-.73-.12-.98v-26.13c0-.65-.15-1.22-.46-1.71-.3-.49-.82-.73-1.54-.73-.38,0-.71.07-.98.2-.27.14-.56.33-.88.58l-.71-.85c.52-.43,1.1-.85,1.74-1.27.64-.42,1.34-.78,2.08-1.1.74-.32,1.55-.58,2.4-.78.86-.2,1.76-.3,2.71-.3,1.47,0,2.61.2,3.42.59.81.39,1.41.88,1.79,1.46.38.58.61,1.19.69,1.84.08.65.12,1.23.12,1.73v26.47ZM24.54,106.02c0-.63.14-1.24.42-1.81.28-.58.68-1.08,1.18-1.51.51-.43,1.09-.77,1.76-1.02.67-.25,1.39-.37,2.18-.37s1.48.12,2.15.37c.67.25,1.25.59,1.74,1.02.5.43.89.93,1.17,1.51.28.58.42,1.18.42,1.81s-.14,1.26-.42,1.83c-.28.56-.67,1.05-1.17,1.47-.5.42-1.08.75-1.74,1-.67.25-1.38.37-2.15.37s-1.52-.12-2.18-.37c-.67-.25-1.25-.58-1.76-1-.51-.42-.9-.91-1.18-1.47-.28-.56-.42-1.17-.42-1.83Z"/>
  <path class="st0" d="M64.41,132.01c0-2.84-.13-5.12-.39-6.82-.26-1.7-.6-3-1.03-3.89-.43-.89-.9-1.48-1.42-1.76-.52-.28-1.05-.42-1.59-.42-.65,0-1.24.18-1.74.52-.51.35-.95.75-1.32,1.2-.37.45-.69.9-.95,1.35-.26.45-.48.79-.66,1.02v22.61c0,.29-.05.65-.14,1.07-.09.42-.31.81-.66,1.18-.35.37-.87.69-1.56.95-.69.26-1.63.39-2.83.39s-2.14-.14-2.83-.42c-.69-.28-1.21-.61-1.57-1-.36-.38-.59-.78-.68-1.18-.09-.41-.14-.73-.14-.98v-26.13c0-.65-.15-1.22-.46-1.71-.3-.49-.82-.73-1.54-.73-.38,0-.71.07-.98.2-.27.14-.56.33-.88.58l-.71-.85c.52-.43,1.1-.85,1.74-1.27.64-.42,1.34-.78,2.08-1.1.74-.32,1.55-.58,2.4-.78.86-.2,1.76-.3,2.71-.3,1.47,0,2.61.24,3.42.73.81.49,1.41,1.07,1.79,1.74.38.68.61,1.38.69,2.12.08.73.12,1.35.12,1.84.83-1.2,1.78-2.27,2.84-3.22.43-.41.91-.8,1.44-1.18.53-.38,1.09-.73,1.69-1.03.6-.3,1.23-.55,1.9-.73.67-.18,1.35-.27,2.05-.27,1.53,0,2.89.29,4.08.88,1.18.59,2.18,1.57,3,2.94.81,1.38,1.43,3.2,1.86,5.47.43,2.27.64,5.08.64,8.45s-.29,6.12-.88,8.53c-.59,2.41-1.35,4.47-2.3,6.16-.95,1.69-2.02,3.07-3.22,4.15-1.2,1.07-2.4,1.91-3.62,2.52-1.22.61-2.39,1.03-3.5,1.27-1.12.24-2.08.37-2.89.39l-.37-1.39c.68-.16,1.3-.41,1.88-.74.58-.34,1.1-.83,1.57-1.49.47-.65.89-1.48,1.25-2.49.36-1,.67-2.26.93-3.77.26-1.51.45-3.3.58-5.36.12-2.06.19-4.47.19-7.23Z"/>
</svg>